<svg width="48" height="47" viewBox="0 0 48 47" fill="none" xmlns="http://www.w3.org/2000/svg">
<path d="M47.1355 23.5001C47.1355 26.5377 46.5372 29.5457 45.3747 32.3521C44.2122 35.1585 42.5084 37.7085 40.3604 39.8565C38.2125 42.0044 35.6625 43.7083 32.8561 44.8707C30.0496 46.0332 27.0417 46.6315 24.004 46.6315C20.9664 46.6315 17.9585 46.0332 15.152 44.8707C12.3456 43.7083 9.79561 42.0044 7.64766 39.8565C5.49971 37.7085 3.79586 35.1585 2.63339 32.3521C1.47093 29.5457 0.872619 26.5377 0.87262 23.5001L24.004 23.5001H47.1355Z" fill="#323232"/>
<path d="M0.872584 23.4999C0.872584 20.4623 1.4709 17.4543 2.63336 14.6479C3.79582 11.8415 5.49967 9.29148 7.64762 7.14353C9.79557 4.99558 12.3456 3.29173 15.152 2.12927C17.9584 0.966802 20.9664 0.36849 24.004 0.36849C27.0417 0.36849 30.0496 0.966803 32.856 2.12927C35.6625 3.29173 38.2125 4.99558 40.3604 7.14353C42.5084 9.29148 44.2122 11.8415 45.3747 14.6479C46.5371 17.4543 47.1354 20.4623 47.1354 23.4999L24.004 23.4999L0.872584 23.4999Z" fill="#ED5A25"/>
</svg>
