<svg width="12" height="13" viewBox="0 0 12 13" fill="none" xmlns="http://www.w3.org/2000/svg">
<rect y="0.5" width="12" height="12" rx="6" fill="#FFCEBC"/>
<path d="M9.248 5.85435L4.93 10.2944C4.81 10.4174 4.611 10.2749 4.689 10.1219L6.226 7.08885C6.23764 7.06596 6.24321 7.04047 6.24218 7.01481C6.24114 6.98915 6.23354 6.96418 6.22009 6.9423C6.20664 6.92042 6.1878 6.90236 6.16537 6.88985C6.14295 6.87734 6.11768 6.8708 6.092 6.87085H2.859C2.82947 6.87083 2.80061 6.86209 2.77602 6.84573C2.75144 6.82937 2.73223 6.80612 2.72081 6.77889C2.70938 6.75166 2.70624 6.72167 2.71179 6.69266C2.71734 6.66366 2.73133 6.63694 2.752 6.61585L6.757 2.55835C6.873 2.44085 7.066 2.56985 7.0015 2.72235L5.853 5.42985C5.84328 5.45281 5.83943 5.47782 5.8418 5.50264C5.84417 5.52745 5.85269 5.55129 5.86659 5.57198C5.88048 5.59268 5.89932 5.60958 5.92139 5.62117C5.94346 5.63276 5.96807 5.63866 5.993 5.63835L9.1385 5.59935C9.16818 5.59888 9.19734 5.60722 9.22228 5.62332C9.24722 5.63943 9.26682 5.66257 9.2786 5.68982C9.29038 5.71707 9.2938 5.7472 9.28845 5.7764C9.28309 5.8056 9.26919 5.83256 9.2485 5.85385" fill="#ED5A25"/>
</svg>
